<?xml version="1.0" encoding="utf-8"?>
<!-- Generator: Adobe Illustrator 22.0.0, SVG Export Plug-In . SVG Version: 6.00 Build 0)  -->
<svg version="1.1" id="Layer_1" xmlns="http://www.w3.org/2000/svg" xmlns:xlink="http://www.w3.org/1999/xlink" x="0px" y="0px"
	 viewBox="0 0 80 80" style="enable-background:new 0 0 80 80;" xml:space="preserve">
<style type="text/css">
	.st0{clip-path:url(#SVGID_2_);}
	.st1{fill-rule:evenodd;clip-rule:evenodd;fill:#0072BC;}
	.st2{fill-rule:evenodd;clip-rule:evenodd;fill:#FFFFFF;}
</style>
<g>
	<g>
		<defs>
			<rect id="SVGID_1_" width="80" height="80"/>
		</defs>
		<clipPath id="SVGID_2_">
			<use xlink:href="#SVGID_1_"  style="overflow:visible;"/>
		</clipPath>
		<g class="st0">
			<polygon class="st1" points="-1,-1 81,-1 81,81 -1,81 -1,-1 			"/>
			<path class="st2" d="M4.9,63.9v-5.7h0.8v5H9v0.7H4.9L4.9,63.9z M54,36h-0.4v0.9H54c0.2,0,0.4,0,0.5-0.1c0.1-0.1,0.2-0.2,0.2-0.3
				c0-0.2-0.1-0.3-0.2-0.3C54.4,36.1,54.3,36,54,36L54,36z M54.1,35.7c0.4,0,0.6,0.1,0.8,0.2c0.2,0.1,0.3,0.3,0.3,0.5
				c0,0.2-0.1,0.3-0.2,0.5c-0.1,0.1-0.3,0.2-0.4,0.2l0.6,1.2h-0.6l-0.5-1.1h-0.5v1.1h-0.5v-2.7H54.1L54.1,35.7z M56.1,37.1
				c0-0.3,0-0.5-0.1-0.8c-0.1-0.2-0.2-0.5-0.4-0.7c-0.2-0.2-0.4-0.3-0.7-0.4c-0.2-0.1-0.5-0.2-0.8-0.2c-0.3,0-0.5,0-0.8,0.1
				c-0.2,0.1-0.5,0.2-0.6,0.4c-0.2,0.2-0.4,0.4-0.5,0.7c-0.1,0.3-0.2,0.5-0.2,0.8c0,0.3,0.1,0.5,0.2,0.8c0.1,0.2,0.3,0.5,0.4,0.7
				c0.2,0.2,0.4,0.3,0.7,0.4c0.2,0.1,0.5,0.2,0.8,0.2c0.3,0,0.5-0.1,0.8-0.2c0.2-0.1,0.5-0.2,0.7-0.4c0.2-0.2,0.3-0.4,0.4-0.6
				C56,37.6,56.1,37.4,56.1,37.1L56.1,37.1z M54,34.7c0.3,0,0.6,0.1,0.9,0.2c0.3,0.1,0.5,0.3,0.8,0.5c0.2,0.2,0.4,0.5,0.5,0.8
				c0.1,0.3,0.2,0.6,0.2,0.9c0,0.3-0.1,0.6-0.2,0.9c-0.1,0.3-0.3,0.5-0.5,0.7c-0.2,0.2-0.5,0.4-0.8,0.5c-0.3,0.1-0.6,0.2-0.9,0.2
				c-0.3,0-0.6-0.1-0.9-0.2c-0.3-0.1-0.5-0.3-0.8-0.5c-0.2-0.2-0.4-0.5-0.5-0.8c-0.1-0.3-0.2-0.6-0.2-0.9c0-0.3,0.1-0.6,0.2-0.9
				c0.1-0.3,0.3-0.5,0.5-0.8c0.2-0.2,0.5-0.4,0.7-0.5C53.4,34.8,53.7,34.7,54,34.7L54,34.7z M47.4,27.5L43.3,16h-2.6v8.2l1.2,3.3
				H47.4L47.4,27.5z M49.2,32.3L48,29h-7.3v3.3H49.2L49.2,32.3z M51.7,39.4l-2-5.6h-5.5l2,5.6H51.7L51.7,39.4z M32.6,27.5L36.7,16
				h2.6v8.2l-1.2,3.3H32.6L32.6,27.5z M30.8,32.3L32,29h7.3v3.3H30.8L30.8,32.3z M28.3,39.4l2-5.6h5.5l-2,5.6H28.3L28.3,39.4z
				 M65.9,50.2c-0.1-1.1-0.3-2.4-0.4-4c-0.3,1.8-0.5,3.2-0.6,4H65.9L65.9,50.2z M67.6,44.1l1.7,9.4h-3l-0.1-1.7h-1.1l-0.1,1.7h-3.1
				l1.5-9.4H67.6L67.6,44.1z M58.6,44.1v9.4h-2.6l-1.6-4.2v4.2h-2.5v-9.4h2.5l1.7,4.2v-4.2H58.6L58.6,44.1z M44.4,45.7v2.1
				c0.4,0,0.6-0.1,0.8-0.1c0.1-0.1,0.2-0.3,0.2-0.7l0-0.5c0-0.3,0-0.5-0.2-0.6C45,45.8,44.7,45.7,44.4,45.7L44.4,45.7z M41.4,44.1
				h2.1c1.4,0,2.4,0.1,2.9,0.1c0.5,0.1,0.9,0.4,1.2,0.7c0.3,0.4,0.5,1,0.5,1.8c0,0.7-0.1,1.2-0.3,1.5c-0.2,0.2-0.7,0.4-1.3,0.4
				c0.6,0.2,1,0.3,1.2,0.5c0.2,0.2,0.3,0.4,0.4,0.5c0,0.2,0.1,0.7,0.1,1.4v2.5h-2.8v-3.1c0-0.5,0-0.8-0.1-0.9
				c-0.1-0.2-0.4-0.2-0.8-0.2v4.2h-3V44.1L41.4,44.1z M35,50.2c-0.1-1.1-0.3-2.4-0.5-4c-0.3,1.8-0.5,3.2-0.6,4H35L35,50.2z
				 M36.5,44.1l1.7,9.4h-3l-0.1-1.7H34l-0.2,1.7h-3.1l1.5-9.4H36.5L36.5,44.1z M24.4,45.7v2.4c0.1,0,0.2,0,0.2,0
				c0.3,0,0.5-0.1,0.6-0.2c0.1-0.1,0.1-0.3,0.1-0.7v-0.8c0-0.4,0-0.6-0.2-0.6C25.1,45.8,24.8,45.7,24.4,45.7L24.4,45.7z M21.4,44.1
				h3c0.8,0,1.5,0.1,1.9,0.2c0.4,0.1,0.8,0.3,1,0.5c0.2,0.2,0.4,0.4,0.5,0.7c0,0.3,0.1,0.7,0.1,1.3v0.9c0,0.6-0.1,1-0.2,1.3
				c-0.1,0.3-0.4,0.5-0.9,0.6c-0.4,0.2-1,0.2-1.6,0.2h-0.8v3.8h-3V44.1L21.4,44.1z M15,50.2c-0.1-1.1-0.3-2.4-0.5-4
				c-0.3,1.8-0.5,3.2-0.5,4H15L15,50.2z M16.6,44.1l1.8,9.4h-3l-0.2-1.7H14l-0.2,1.7h-3.1l1.5-9.4H16.6L16.6,44.1z M71.5,61.4h2.9
				c0-0.4-0.2-0.7-0.5-0.9c-0.3-0.2-0.6-0.3-1-0.3c-0.4,0-0.7,0.1-0.9,0.3C71.7,60.7,71.5,61,71.5,61.4L71.5,61.4z M71.4,61.9
				L71.4,61.9c0,0.4,0.1,0.8,0.4,1c0.3,0.2,0.6,0.4,1,0.4c0.3,0,0.6,0,0.9-0.2c0.2-0.1,0.4-0.3,0.5-0.6h0.9
				c-0.2,0.5-0.4,0.8-0.8,1.1c-0.3,0.3-0.8,0.4-1.4,0.4c-0.7,0-1.2-0.2-1.6-0.6c-0.4-0.4-0.6-0.9-0.6-1.6c0-0.7,0.2-1.2,0.6-1.6
				c0.4-0.4,0.9-0.6,1.6-0.6c0.7,0,1.2,0.2,1.7,0.6c0.4,0.4,0.6,1,0.6,1.7v0.1H71.4L71.4,61.9z M67.1,63.9v-4.2h0.7v0.7
				c0.2-0.3,0.4-0.5,0.6-0.7c0.3-0.1,0.6-0.2,0.9-0.2c0.1,0,0.1,0,0.2,0c0.1,0,0.1,0,0.2,0l0,0.8c-0.1,0-0.2,0-0.3,0
				c-0.1,0-0.2,0-0.2,0c-0.4,0-0.7,0.1-0.9,0.4c-0.3,0.3-0.4,0.7-0.4,1.1v2.1H67.1L67.1,63.9z M65.3,59.7v4.2h-0.7v-0.7
				c-0.3,0.3-0.5,0.5-0.8,0.6c-0.3,0.1-0.6,0.2-0.9,0.2c-0.3,0-0.5,0-0.7-0.1c-0.2-0.1-0.4-0.2-0.6-0.4c-0.1-0.1-0.2-0.3-0.2-0.5
				c0-0.2-0.1-0.5-0.1-0.9v-2.4H62v2.4c0,0.5,0.1,0.8,0.3,1c0.1,0.2,0.4,0.3,0.7,0.3c0.5,0,0.8-0.1,1.1-0.4c0.3-0.3,0.4-0.7,0.4-1.1
				v-2.2H65.3L65.3,59.7z M58.9,62.8c0,0.2,0,0.3,0.1,0.4c0.1,0.1,0.2,0.1,0.4,0.1c0,0,0.1,0,0.2,0s0.2,0,0.3,0V64
				c-0.2,0-0.3,0-0.4,0c-0.1,0-0.2,0-0.3,0c-0.3,0-0.6,0-0.8-0.2c-0.2-0.1-0.3-0.4-0.3-0.7l0-2.8h-0.7v-0.7h0.7v-1.1h0.7v1.1h1v0.7
				h-1V62.8L58.9,62.8z M55.9,59.7v4.2h-0.7v-0.7c-0.3,0.3-0.5,0.5-0.8,0.6c-0.3,0.1-0.6,0.2-0.9,0.2c-0.3,0-0.5,0-0.7-0.1
				c-0.2-0.1-0.4-0.2-0.5-0.4C52.1,63.4,52,63.2,52,63c0-0.2,0-0.5,0-0.9v-2.4h0.7v2.4c0,0.5,0.1,0.8,0.2,1c0.2,0.2,0.4,0.3,0.8,0.3
				c0.4,0,0.8-0.1,1.1-0.4c0.3-0.3,0.4-0.7,0.4-1.1v-2.2H55.9L55.9,59.7z M49,63.9v-3.6h-0.7v-0.7H49v-0.5c0-0.4,0.1-0.6,0.3-0.8
				c0.2-0.1,0.4-0.2,0.8-0.2c0.1,0,0.3,0,0.3,0c0.1,0,0.2,0,0.3,0v0.7c-0.1,0-0.2,0-0.2,0c-0.1,0-0.2,0-0.3,0c-0.2,0-0.3,0-0.4,0.1
				c-0.1,0.1-0.1,0.2-0.1,0.4v0.3h1v0.7h-1v3.6H49L49,63.9z M40.8,61.4h2.9c0-0.4-0.2-0.7-0.5-0.9c-0.3-0.2-0.6-0.3-0.9-0.3
				c-0.4,0-0.7,0.1-1,0.3C41,60.7,40.9,61,40.8,61.4L40.8,61.4z M40.8,61.9L40.8,61.9c0,0.4,0.2,0.8,0.4,1c0.3,0.2,0.6,0.4,1.1,0.4
				c0.3,0,0.6,0,0.8-0.2c0.2-0.1,0.4-0.3,0.5-0.6h0.9c-0.1,0.5-0.4,0.8-0.8,1.1c-0.4,0.3-0.9,0.4-1.4,0.4c-0.7,0-1.2-0.2-1.6-0.6
				C40.2,63,40,62.5,40,61.8c0-0.7,0.2-1.2,0.6-1.6c0.4-0.4,0.9-0.6,1.6-0.6c0.7,0,1.2,0.2,1.6,0.6c0.4,0.4,0.6,1,0.6,1.7l0,0.1
				H40.8L40.8,61.9z M34.5,63.9v-5.7h0.7v2.2c0.2-0.3,0.5-0.5,0.7-0.6c0.3-0.1,0.6-0.2,0.9-0.2c0.3,0,0.5,0,0.7,0.1
				c0.2,0.1,0.4,0.2,0.5,0.4c0.1,0.1,0.2,0.3,0.3,0.5c0,0.2,0.1,0.5,0.1,0.9v2.4h-0.8v-2.4c0-0.5-0.1-0.8-0.2-1
				c-0.2-0.2-0.4-0.3-0.8-0.3c-0.4,0-0.8,0.1-1.1,0.4c-0.3,0.3-0.4,0.7-0.4,1.1v2.2H34.5L34.5,63.9z M32,62.8c0,0.2,0,0.3,0.1,0.4
				c0.1,0.1,0.2,0.1,0.4,0.1c0.1,0,0.2,0,0.2,0c0.1,0,0.2,0,0.3,0V64c-0.2,0-0.3,0-0.4,0c-0.1,0-0.2,0-0.3,0c-0.3,0-0.6,0-0.8-0.2
				c-0.2-0.1-0.3-0.4-0.3-0.7v-2.8h-0.7v-0.7h0.7v-1.1H32v1.1h1v0.7h-1V62.8L32,62.8z M25.7,61.8c0-0.5-0.2-0.8-0.4-1.1
				c-0.3-0.3-0.6-0.4-1.1-0.4c-0.5,0-0.9,0.1-1.1,0.4c-0.3,0.2-0.4,0.6-0.4,1.1c0,0.5,0.1,0.8,0.4,1.1c0.3,0.3,0.6,0.4,1.1,0.4
				c0.4,0,0.8-0.1,1.1-0.4C25.6,62.6,25.7,62.2,25.7,61.8L25.7,61.8z M26.5,58.2v5.7h-0.7v-0.6c-0.2,0.2-0.5,0.4-0.7,0.6
				C24.7,64,24.4,64,24.1,64c-0.7,0-1.2-0.2-1.6-0.6c-0.4-0.4-0.6-1-0.6-1.6c0-0.7,0.2-1.2,0.6-1.6c0.4-0.4,0.9-0.6,1.6-0.6
				c0.3,0,0.6,0,0.9,0.2c0.3,0.1,0.5,0.3,0.7,0.5v-2.1H26.5L26.5,58.2z M19.4,63.2c-0.2,0.2-0.4,0.5-0.7,0.6c-0.3,0.1-0.6,0.2-1,0.2
				c-0.5,0-0.9-0.1-1.2-0.3c-0.3-0.2-0.4-0.5-0.4-0.9c0-0.2,0-0.4,0.2-0.6c0.1-0.2,0.2-0.3,0.4-0.5c0.1,0,0.3-0.1,0.4-0.1
				c0.2,0,0.5-0.1,0.9-0.1c0,0,0.2,0,0.3,0c0.7,0,1.1-0.2,1.1-0.5c0-0.2-0.1-0.4-0.3-0.5c-0.2-0.1-0.5-0.1-0.8-0.1
				c-0.4,0-0.7,0-0.9,0.2c-0.2,0.1-0.3,0.3-0.3,0.7l-0.8,0c0-0.5,0.2-0.9,0.6-1.1c0.3-0.3,0.8-0.4,1.4-0.4c0.7,0,1.2,0.1,1.5,0.3
				c0.3,0.2,0.4,0.6,0.4,1.1v1.7c0,0.2,0,0.4,0.1,0.5c0,0.1,0.2,0.1,0.3,0.1c0,0,0,0,0.1,0c0,0,0.1,0,0.1,0v0.6c-0.1,0-0.2,0-0.3,0
				c-0.1,0-0.2,0-0.3,0c-0.2,0-0.3,0-0.5-0.1C19.6,63.6,19.5,63.4,19.4,63.2L19.4,63.2z M19.4,61.7c-0.1,0-0.3,0.1-0.5,0.1
				c-0.2,0-0.4,0.1-0.8,0.1c-0.5,0-0.9,0.1-1,0.2C17,62.3,17,62.5,17,62.7c0,0.2,0.1,0.3,0.3,0.5c0.1,0.1,0.4,0.2,0.6,0.2
				c0.5,0,0.8-0.1,1.1-0.3c0.3-0.2,0.5-0.4,0.5-0.7V61.7L19.4,61.7z M11,61.4h2.9c0-0.4-0.2-0.7-0.5-0.9c-0.3-0.2-0.6-0.3-0.9-0.3
				c-0.4,0-0.7,0.1-1,0.3C11.2,60.7,11.1,61,11,61.4L11,61.4z M11,61.9L11,61.9c0,0.4,0.2,0.8,0.4,1c0.3,0.2,0.6,0.4,1.1,0.4
				c0.3,0,0.6,0,0.8-0.2c0.2-0.1,0.4-0.3,0.5-0.6h0.9c-0.1,0.5-0.4,0.8-0.8,1.1C13.5,63.9,13,64,12.5,64c-0.7,0-1.2-0.2-1.7-0.6
				c-0.4-0.4-0.6-0.9-0.6-1.6c0-0.7,0.2-1.2,0.6-1.6c0.4-0.4,1-0.6,1.7-0.6c0.7,0,1.2,0.2,1.6,0.6c0.4,0.4,0.6,1,0.6,1.7v0.1H11
				L11,61.9z"/>
		</g>
	</g>
</g>
</svg>
